# Blender v2.78 (sub 0) OBJ File: ''
# www.blender.org
mtllib vis_lowQ1.mtl
o Sphere
v 0.000000 0.500000 -0.866025
v 0.000000 0.866025 -0.500000
v 0.293893 0.866025 -0.404509
v 0.509037 0.500000 -0.700629
v 0.000000 0.000000 -1.000000
v 0.587785 0.000000 -0.809017
v 0.000000 1.000000 0.000000
v 0.475528 0.866025 -0.154509
v 0.823639 0.500000 -0.267617
v 0.951056 0.000000 -0.309017
v 0.475528 0.866025 0.154508
v 0.823639 0.500000 0.267616
v 0.951056 -0.000000 0.309017
v 0.509037 0.500000 0.700629
v 0.587785 -0.000000 0.809017
v 0.293893 0.866025 0.404508
v 0.000000 0.500000 0.866025
v 0.000000 -0.000000 1.000000
v 0.000000 0.866025 0.500000
v -0.509037 0.500000 0.700629
v -0.587785 -0.000000 0.809017
v -0.293893 0.866025 0.404508
v -0.823639 0.500000 0.267616
v -0.951056 -0.000000 0.309017
v -0.475528 0.866025 0.154508
v -0.823639 0.500000 -0.267617
v -0.951056 0.000000 -0.309017
v -0.475528 0.866025 -0.154509
v -0.293893 0.866025 -0.404508
v -0.509037 0.500000 -0.700629
v -0.587785 0.000000 -0.809017
vn 0.2239 0.6892 -0.6892
vn 0.2994 0.2469 -0.9216
vn 0.0838 0.9625 -0.2579
vn 0.5862 0.6892 -0.4259
vn 0.7840 0.2469 -0.5696
vn 0.2194 0.9625 -0.1594
vn 0.7246 0.6892 0.0000
vn 0.9690 0.2469 0.0000
vn 0.2712 0.9625 0.0000
vn 0.7840 0.2469 0.5696
vn 0.2194 0.9625 0.1594
vn 0.5862 0.6892 0.4259
vn 0.2994 0.2469 0.9216
vn 0.0838 0.9625 0.2579
vn 0.2239 0.6892 0.6892
vn -0.2994 0.2469 0.9216
vn -0.0838 0.9625 0.2579
vn -0.2239 0.6892 0.6892
vn -0.7840 0.2469 0.5696
vn -0.2194 0.9625 0.1594
vn -0.5862 0.6892 0.4259
vn -0.9690 0.2469 0.0000
vn -0.2712 0.9625 0.0000
vn -0.7246 0.6892 0.0000
vn -0.2194 0.9625 -0.1594
vn -0.5862 0.6892 -0.4259
vn -0.7840 0.2469 -0.5696
vn -0.2239 0.6892 -0.6892
vn -0.2994 0.2469 -0.9216
vn -0.0838 0.9625 -0.2579
usemtl None
s 1
f 1//1 2//1 3//1 4//1
f 5//2 1//2 4//2 6//2
f 2//3 7//3 3//3
f 4//4 3//4 8//4 9//4
f 6//5 4//5 9//5 10//5
f 3//6 7//6 8//6
f 9//7 8//7 11//7 12//7
f 10//8 9//8 12//8 13//8
f 8//9 7//9 11//9
f 13//10 12//10 14//10 15//10
f 11//11 7//11 16//11
f 12//12 11//12 16//12 14//12
f 15//13 14//13 17//13 18//13
f 16//14 7//14 19//14
f 14//15 16//15 19//15 17//15
f 18//16 17//16 20//16 21//16
f 19//17 7//17 22//17
f 17//18 19//18 22//18 20//18
f 21//19 20//19 23//19 24//19
f 22//20 7//20 25//20
f 20//21 22//21 25//21 23//21
f 24//22 23//22 26//22 27//22
f 25//23 7//23 28//23
f 23//24 25//24 28//24 26//24
f 28//25 7//25 29//25
f 26//26 28//26 29//26 30//26
f 27//27 26//27 30//27 31//27
f 30//28 29//28 2//28 1//28
f 31//29 30//29 1//29 5//29
f 29//30 7//30 2//30
